<svg xmlns="http://www.w3.org/2000/svg" xmlns:svg="http://www.w3.org/2000/svg" id="svg4320" width="24" height="24" version="1.1"><g id="layer1" transform="translate(403.90655,-375.63331)"><path style="fill:#000;fill-opacity:1;stroke:none" id="path3070-9-2" d="m -389.59111,383.64474 c -0.0353,4.6e-4 -0.07,9e-4 -0.10306,0.002 -1.05842,0.0333 -3.08695,-0.0663 -3.93957,0.29983 0,0 -2.0868,1.29744 -2.8217,1.82996 -0.73511,0.53251 -2.23445,0.53264 -3.96913,0.73227 -1.73446,0.19964 -2.40295,0.79354 -2.40295,0.79354 -0.4877,0.65132 -0.74798,1.10854 -0.83101,2.00222 -0.0461,0.23119 0.82666,0.58948 0.82309,1.29805 l 1.35211,0 c 0,0 0.17271,-2.34545 2.05411,-2.31214 1.88161,0.0333 1.97411,2.31214 1.97411,2.31214 l 10.29073,0 c 0,0 0.263,-2.27098 1.96907,-2.33737 1.70402,-0.0666 2.02744,2.33737 2.02744,2.33737 0,0 1.52879,-0.035 2.02889,0 0.52024,0.0207 0.39764,-0.75019 0.94057,-0.93264 0.19436,-1.66005 -0.27403,-1.48194 -0.62201,-2.98675 -0.79438,-0.29957 -0.96432,-0.25963 -1.43354,-0.42596 -0.34369,-0.12113 -2.45146,-1.58333 -3.29524,-1.97771 -0.8154,-0.3816 -2.94719,-0.64895 -4.04191,-0.63497 z m 4.48085,4.84915 a 1.5647065,1.5647065 0 0 0 -1.60942,1.56544 1.5647282,1.5647282 0 0 0 3.12946,0 1.5647065,1.5647065 0 0 0 -1.52004,-1.56544 z m -14.29734,7.1e-4 a 1.5647065,1.5647065 0 0 0 -1.60941,1.56473 1.5647282,1.5647282 0 0 0 3.12945,0 1.5647065,1.5647065 0 0 0 -1.52004,-1.56473 z"/></g><metadata id="metadata4429"/></svg>