<svg xmlns="http://www.w3.org/2000/svg" xmlns:ns1="http://sozi.baierouge.fr" xmlns:svg="http://www.w3.org/2000/svg" xmlns:xlink="http://www.w3.org/1999/xlink" id="svg2" version="1.0" viewBox="0 0 30 30"><defs id="defs4"><linearGradient id="linearGradient2402" x1="10.269" x2="20.64" y1="18.593" y2="20" gradientTransform="matrix(.64410 0 0 .64410 4.0504 -2.3906)" gradientUnits="userSpaceOnUse"><stop id="stop8344" offset="0" style="stop-color:#ef2929"/><stop id="stop8346" offset="1" style="stop-color:#b80d0d"/></linearGradient></defs><g id="layer1"><g id="g2406"><path id="path9344" d="m15.614 3.0787c-0.137 0.0183-0.268 0.0648-0.386 0.1365l-10.195 5.8256c-0.3094 0.1783-0.5002 0.5078-0.5008 0.8647v10.194c-0.0011 0.34 0.1703 0.657 0.4551 0.842l8.7387 5.826c0.316 0.204 0.721 0.213 1.046 0.023l10.195-5.826c0.309-0.178 0.5-0.508 0.501-0.865v-10.194c0.001-0.3402-0.17-0.6573-0.455-0.8425l-8.739-5.8255c-0.194-0.1284-0.428-0.1848-0.66-0.1593z" style="fill:#640000"/><path id="path9348" d="m6.6267 10.491l7.7293 5.153v9.017l-7.7293-5.152v-9.018z" style="fill:#d40000"/><path id="path9350" d="m15.644 5.3386l7.729 5.1524-9.017 5.153-7.7293-5.153 9.0173-5.1524z" style="fill:url(#linearGradient2402)"/><path id="path9352" d="m23.373 10.491v9.018l-9.017 5.152v-9.017l9.017-5.153z" style="fill:#a00"/></g></g><metadata/></svg>