<svg xmlns="http://www.w3.org/2000/svg" xmlns:svg="http://www.w3.org/2000/svg" xmlns:xlink="http://www.w3.org/1999/xlink" id="svg2" width="24" height="24" version="1.1"><defs id="defs4"><linearGradient id="linearGradient3903" x1="10.269" x2="20.64" y1="18.593" y2="20" gradientTransform="matrix(1.7998001,0,0,1.7998001,-1230.8324,1125.8041)" gradientUnits="userSpaceOnUse"><stop id="stop3905" offset="0" style="stop-color:#b6ff19;stop-opacity:1"/><stop id="stop3907" offset="1" style="stop-color:#82b80d;stop-opacity:1"/></linearGradient><linearGradient id="linearGradient2402" x1="10.269" x2="20.64" y1="18.593" y2="20" gradientTransform="matrix(1.7998001,0,0,1.7998001,-1230.8324,1125.8041)" gradientUnits="userSpaceOnUse"><stop style="stop-color:#ef2929" id="stop8344" offset="0"/><stop style="stop-color:#b80d0d" id="stop8346" offset="1"/></linearGradient><linearGradient id="linearGradient3835" x1="10.269" x2="20.64" y1="18.593" y2="20" gradientTransform="matrix(1.7998001,0,0,1.7998001,-1230.8324,1125.8041)" gradientUnits="userSpaceOnUse" xlink:href="#linearGradient2402"/><linearGradient id="linearGradient3839" x1="10.269" x2="20.64" y1="18.593" y2="20" gradientTransform="matrix(0.64410001,0,0,0.64410001,-265.64822,612.31377)" gradientUnits="userSpaceOnUse" xlink:href="#linearGradient2402"/><linearGradient id="linearGradient3839-2" x1="10.269" x2="20.64" y1="18.593" y2="20" gradientTransform="matrix(0.64410001,0,0,0.64410001,-265.64822,612.31377)" gradientUnits="userSpaceOnUse" xlink:href="#linearGradient2402-4"/><linearGradient id="linearGradient2402-4" x1="10.269" x2="20.64" y1="18.593" y2="20" gradientTransform="matrix(1.7998001,0,0,1.7998001,-1230.8324,1125.8041)" gradientUnits="userSpaceOnUse"><stop style="stop-color:#29abef;stop-opacity:1" id="stop8344-8" offset="0"/><stop style="stop-color:#0d7eb8;stop-opacity:1" id="stop8346-5" offset="1"/></linearGradient><linearGradient id="linearGradient3839-8" x1="10.269" x2="20.64" y1="18.593" y2="20" gradientTransform="matrix(0.64410001,0,0,0.64410001,-265.64822,612.31377)" gradientUnits="userSpaceOnUse" xlink:href="#linearGradient3903"/></defs><metadata id="metadata7"/><g id="layer1" transform="translate(-168.15861,-203.05603)"><path style="fill:#640000" id="path9344" d="m 180.14132,213.85453 c -0.049,0.007 -0.0959,0.0232 -0.13814,0.0489 l -3.64851,2.08483 c -0.11073,0.0638 -0.17901,0.18173 -0.17923,0.30945 v 3.64816 c -3.9e-4,0.12168 0.0609,0.23512 0.16287,0.30133 l 3.12735,2.08497 c 0.11308,0.073 0.25802,0.0762 0.37433,0.008 l 3.64852,-2.08497 c 0.11058,-0.0637 0.17893,-0.1818 0.17929,-0.30956 v -3.64816 c 3.6e-4,-0.12175 -0.0608,-0.23523 -0.16283,-0.30151 l -3.12745,-2.08479 c -0.0694,-0.046 -0.15317,-0.0661 -0.2362,-0.057 z"/><path style="fill:#d40000" id="path9348" d="m 176.92501,216.5072 2.76611,1.84412 v 3.22694 l -2.76611,-1.84376 v -3.2273 z"/><path style="fill:url(#linearGradient3839)" id="path9350" d="m 180.15206,214.66329 2.766,1.84391 -3.22694,1.84412 -2.76611,-1.84412 3.22705,-1.84391 z"/><path style="fill:#a00" id="path9352" d="m 182.91806,216.5072 v 3.2273 l -3.22694,1.84376 v -3.22694 l 3.22694,-1.84412 z"/><path style="fill:#640000" id="path9344-3" d="m 176.8451,207.8546 c -0.049,0.007 -0.0959,0.0232 -0.13814,0.0489 l -3.64851,2.08483 c -0.11073,0.0638 -0.17901,0.18173 -0.17923,0.30945 v 3.64816 c -3.9e-4,0.12168 0.0609,0.23512 0.16287,0.30133 l 3.12735,2.08497 c 0.11308,0.073 0.25802,0.0762 0.37433,0.008 l 3.64852,-2.08497 c 0.11058,-0.0637 0.17893,-0.1818 0.17929,-0.30956 v -3.64816 c 3.6e-4,-0.12175 -0.0608,-0.23523 -0.16283,-0.30151 l -3.12745,-2.08479 c -0.0694,-0.046 -0.15317,-0.0661 -0.2362,-0.057 z"/><path style="fill:#008cd4;fill-opacity:1" id="path9348-1" d="m 173.62879,210.50727 2.76611,1.84412 v 3.22694 l -2.76611,-1.84376 v -3.2273 z"/><path style="fill:url(#linearGradient3839-2);fill-opacity:1" id="path9350-1" d="m 176.85584,208.66336 2.766,1.84391 -3.22694,1.84412 -2.76611,-1.84412 3.22705,-1.84391 z"/><path style="fill:#0070aa;fill-opacity:1" id="path9352-2" d="m 179.62184,210.50727 v 3.2273 l -3.22694,1.84376 v -3.22694 l 3.22694,-1.84412 z"/><path style="fill:#640000" id="path9344-9" d="m 183.91153,207.72534 c -0.049,0.007 -0.0959,0.0232 -0.13814,0.0489 l -3.64851,2.08483 c -0.11073,0.0638 -0.17901,0.18173 -0.17923,0.30945 v 3.64816 c -3.9e-4,0.12168 0.0609,0.23512 0.16287,0.30133 l 3.12735,2.08497 c 0.11308,0.073 0.25802,0.0762 0.37433,0.008 l 3.64852,-2.08497 c 0.11058,-0.0637 0.17893,-0.1818 0.17929,-0.30956 v -3.64816 c 3.6e-4,-0.12175 -0.0608,-0.23523 -0.16283,-0.30151 l -3.12745,-2.08479 c -0.0694,-0.046 -0.15317,-0.0661 -0.2362,-0.057 z"/><path style="fill:#91d400;fill-opacity:1" id="path9348-6" d="m 180.69522,210.37801 2.76611,1.84412 v 3.22694 l -2.76611,-1.84376 v -3.2273 z"/><path style="fill:url(#linearGradient3839-8);fill-opacity:1" id="path9350-2" d="m 183.92227,208.5341 2.766,1.84391 -3.22694,1.84412 -2.76611,-1.84412 3.22705,-1.84391 z"/><path style="fill:#74aa00;fill-opacity:1" id="path9352-5" d="m 186.68827,210.37801 v 3.2273 l -3.22694,1.84376 v -3.22694 l 3.22694,-1.84412 z"/></g></svg>